<svg xmlns="http://www.w3.org/2000/svg" viewBox="0 0 1440 1024">
  <linearGradient id="a" gradientUnits="userSpaceOnUse" y1="512" x2="1440" y2="512">
    <stop offset="0" stop-color="#FFF"/>
    <stop offset="1" stop-color="#ECECEC"/>
  </linearGradient>
  <path d="M0 0h1440v1024H0z" fill="url(#a)"/>
  <path d="M1099.1 0L0 938.8V380.5L430.8 0z" opacity=".3" fill="#fff"/>
  <linearGradient id="b" gradientUnits="userSpaceOnUse" x1="428.822" y1="512" x2="1440" y2="512">
    <stop offset="0" stop-color="#FFF"/>
    <stop offset="1" stop-color="#ECECEC"/>
  </linearGradient>
  <path d="M1060.4 694.1c-9.8 13-7.7 31.7 4.8 42.1l355.2 287.8h-369.8L443.4 804.8c-13.2-8.5-20.1-37.4-9.1-52.3L1275 0h165v192l-379.6 502.1z" opacity=".8" fill="url(#b)"/>
  <path d="M913.4 1024H198l180-167.1c2.5-2.6 5.7-4.1 9.1-4.7 1.3-.3 2.6-.4 4-.4 2.1 0 4.3.4 6.4 1.2l515.9 171z" fill="#f5f5f5"/>
</svg>
