<svg width="368" height="115" xmlns="http://www.w3.org/2000/svg">
  <defs>
    <linearGradient x1="-3139.92%" y1="788.19%" x2="346.48%" y2="83.39%" id="a">
      <stop stop-color="#95BCD7" offset="0%"/>
      <stop stop-color="#95BCD7" offset="15%"/>
      <stop stop-color="#78C1DC" offset="36%"/>
      <stop stop-color="#68C4DE" offset="46%"/>
      <stop stop-color="#74C8EE" offset="75%"/>
      <stop stop-color="#74C8EE" offset="100%"/>
    </linearGradient>
  </defs>
  <g fill="none">
    <path d="M64.213 94.83L44.525 78.672a1.188 1.188 0 0 1-.188-1.643L82 27.1c0-.942 0-2.1-.884-2.1h-.214c-.208.037-.403.13-.563.27L20.2 79.425a1.65 1.65 0 0 0 .348 2.02l42.485 15.43a1.175 1.175 0 0 0 1.543-.467 1.189 1.189 0 0 0-.365-1.58z" fill="#5BA0D1"/>
    <path fill="url(#a)" d="M80 2l.82-.845L82 0"/>
    <path d="M80.34 1.283L.3 71.923a.886.886 0 0 0 .295 1.499l18.932 6.524c.302.11.64.05.884-.16L82 27.19V0c-.575.4-1.13.828-1.66 1.283zM65 94.82a.817.817 0 0 0-.48-.578L21.043 80h-.452a.735.735 0 0 0-.4.21L5.247 93.82a.787.787 0 0 0 .293 1.315L65 115V94.82z" fill="#71CBF4"/>
    <path fill="#5BA0D1" d="M108 73h-7V14h6.974m255.384 29.88a15.796 15.796 0 0 0-11.65-4.878c-8.825.404-15.758 7.725-15.708 16.588.05 8.863 7.066 16.105 15.896 16.408 3.12.05 6.177-.888 8.737-2.68a17.757 17.757 0 0 0 5.557-6.38h-7.668a7.711 7.711 0 0 1-6.6 3.11c-4.23.284-7.996-2.674-8.737-6.862l-.16-1.287h24.822a17.139 17.139 0 0 0-4.49-14.02zm-20.28 8.712l.214-1.314a8.929 8.929 0 0 1 8.497-6.215 8.926 8.926 0 0 1 8.495 6.215l.214 1.314h-17.42zM117.002 27.51a4.164 4.164 0 0 1 1.446-3.23 4.594 4.594 0 0 1 3.106-1.28c1.145.02 2.24.478 3.052 1.28a4.5 4.5 0 0 1 0 6.513 4.531 4.531 0 0 1-3.052 1.254 4.639 4.639 0 0 1-3.106-1.254 4.13 4.13 0 0 1-1.446-3.283zM125.035 72h-7.203V39.12h7.256L125.035 72zM134 39.014h7.293v8.554a14.211 14.211 0 0 1 4.71-6.068 12.605 12.605 0 0 1 8.072-2.486c2.867-.145 5.68.812 7.857 2.674A9.543 9.543 0 0 1 165 48.664V71.92h-7.293V52.086a6.552 6.552 0 0 0-1.668-4.037 6.453 6.453 0 0 0-4.71-1.845c-1.396-.012-2.78.26-4.064.802a9.776 9.776 0 0 0-3.202 2.165 9.417 9.417 0 0 0-2.045 3.26 11.308 11.308 0 0 0-.727 4.09V72H134V39.014zm62.247 1.161l4.33 4.22c-1.936 1.763-9.093 8.573-11.03 10.336C191.834 57.75 200.632 69.983 203 73h-8.422c-1.668-2.27-8.475-11.244-10.116-13.515l-4.17 3.766v9.723H173V14h7.29v40.89c2.72-2.563 13.212-12.15 15.957-14.715zM220.973 72c-3.02-5.598-14.113-27.24-16.973-33h7.858C213.783 42.723 221 58.58 221 58.58s7.297-15.83 9.222-19.58H238c-2.887 5.76-14.113 27.402-17.027 33zm18.27-16.194a15.901 15.901 0 0 1 1.348-6.44 17.37 17.37 0 0 1 8.872-8.977 15.278 15.278 0 0 1 6.363-1.363c1.36-.015 2.714.174 4.017.56 1.068.32 2.098.75 3.074 1.283.7.386 1.343.862 1.914 1.416.376.357.703.76.97 1.203V39h7.2v32.865h-7.118v-3.928c-.325.38-.676.738-1.052 1.07-.6.54-1.272.997-1.995 1.36-.962.49-1.974.876-3.02 1.15-1.32.34-2.68.5-4.044.48a16.526 16.526 0 0 1-6.686-1.335 17.027 17.027 0 0 1-5.392-3.527 15.764 15.764 0 0 1-4.692-11.275l.243-.054zm7.2-.454a10.169 10.169 0 0 0 .7 3.82 8.844 8.844 0 0 0 1.995 3.047c.88.87 1.924 1.56 3.074 2.03 2.53.983 5.342.983 7.873 0a9.151 9.151 0 0 0 3.074-2.058 9.367 9.367 0 0 0 1.994-3.1c.47-1.19.707-2.46.7-3.74a9.79 9.79 0 0 0-.7-3.714 8.658 8.658 0 0 0-1.995-2.992 9.817 9.817 0 0 0-3.075-1.978 10.246 10.246 0 0 0-3.937-.748 10.686 10.686 0 0 0-3.936.695 8.942 8.942 0 0 0-5.096 4.997 9.688 9.688 0 0 0-.674 3.74zM289 73h-7V14h7m39 57.954h-7.206V63.48a15.412 15.412 0 0 1-4.597 5.953 12.309 12.309 0 0 1-8.066 2.547 11.474 11.474 0 0 1-8.065-2.68 9.321 9.321 0 0 1-3.065-6.946V39h7.286v20.003a6.325 6.325 0 0 0 1.64 3.968 6.568 6.568 0 0 0 4.76 1.77c1.38.02 2.752-.234 4.032-.75a9.346 9.346 0 0 0 3.146-2.118 9.892 9.892 0 0 0 2.097-3.245c.514-1.306.77-2.7.754-4.102V39h7.205l.08 32.954z"/>
    <path fill="#71CBF4" d="M106.6 83.173H101V81h14v2.173h-5.6V103h-2.576M117 103V81h2.34v9.66h10.293V81H132v22h-2.367V92.966H119.34V103M137 81h12v2.173h-9.7v7.647h9.54v2.173h-9.54v7.834h9.594V103H137m29.77-21.935a8.701 8.701 0 0 1 5.875 1.39 6.721 6.721 0 0 1 2.35 5.217 6.88 6.88 0 0 1-2.243 5.35 8.373 8.373 0 0 1-5.77 1.47h-3.525V103H161V81.065h5.77zm-3.313 11.155h3.5a6.827 6.827 0 0 0 4.085-.937 4.71 4.71 0 0 0 0-7.142 6.855 6.855 0 0 0-4.086-.908h-3.5v8.988zM177 101.015c2.422-2.4 4.817-4.853 7.186-7.28 1.997-1.956 4.126-3.86 4.232-6.616a4.618 4.618 0 0 0-1.206-3.437 4.295 4.295 0 0 0-3.265-1.39c-2.662 0-4.365 2.042-4.445 5.516h-2.316a8.234 8.234 0 0 1 1.89-5.516c1.305-1.507 3.183-2.344 5.137-2.288a6.275 6.275 0 0 1 4.8 1.94 6.756 6.756 0 0 1 1.854 4.98c-.228 2.534-1.426 4.868-3.327 6.48l-7.186 7.416H191V103h-14v-1.985zm23.736-19.95a8.61 8.61 0 0 1 5.842 1.39 6.732 6.732 0 0 1 2.417 5.217 6.9 6.9 0 0 1-2.23 5.35 8.29 8.29 0 0 1-5.737 1.47h-3.585V103H195V81.065h5.736zm-3.293 11.155h3.585a6.764 6.764 0 0 0 4.037-.91 4.722 4.722 0 0 0 1.628-3.57 4.723 4.723 0 0 0-1.628-3.572 6.788 6.788 0 0 0-4.063-.91h-3.56v8.962zM240 96.65a11.109 11.109 0 0 1-10.31 6.347c-5.734.06-10.646-4.064-11.546-9.693-.9-5.63 2.485-11.064 7.954-12.773 5.47-1.708 11.373.824 13.875 5.952h-2.728a8.984 8.984 0 0 0-7.556-4.284c-4.485-.072-8.39 3.03-9.31 7.393-.92 4.364 1.406 8.763 5.542 10.486 4.136 1.724 8.92.287 11.405-3.425H240zm2-4.99a11.5 11.5 0 1 1 22.14 4.201 11.498 11.498 0 0 1-10.64 7.137 11.26 11.26 0 0 1-11.499-11.338zm2.473 0a9.025 9.025 0 0 0 9.168 8.81 9.026 9.026 0 0 0-.139-18.052 9.008 9.008 0 0 0-9.028 9.242zM268 103V81h3.458l8.042 18.46L287.542 81H291v22h-2.305V83.44L280.277 103h-1.58l-8.552-19.56V103m31.625-21.935a8.701 8.701 0 0 1 5.875 1.39 6.721 6.721 0 0 1 2.35 5.217 6.88 6.88 0 0 1-2.243 5.35 8.34 8.34 0 0 1-5.77 1.47h-3.525V103H296V81.065h5.77zm-3.313 11.155h3.5a6.808 6.808 0 0 0 4.06-.91 4.713 4.713 0 0 0-.001-7.142 6.86 6.86 0 0 0-4.087-.91h-3.42l-.053 8.962zm12.27 10.78H308l9.327-22h2.428L329 103h-2.727l-2.728-6.17h-10.418l-2.4 6.17zm7.828-19.237L314.11 94.79h8.917l-4.472-11.027zm28.032 15.615V81H349v22h-2.413l-13.174-18.512V103H331V81h2.52m24.72 14.273L351 81h2.742l5.785 11.885L365.257 81H368l-7.24 14.273V103h-2.52"/>
  </g>
</svg>
