<svg width="32" height="16" viewBox="0 0 32 16" fill="none" xmlns="http://www.w3.org/2000/svg">
<path fill-rule="evenodd" clip-rule="evenodd" d="M14.928 4.00024C13.544 1.60958 10.9587 0.000244141 8 0.000244141C3.58533 0.000244141 0 3.58558 0 8.00024C0 12.4149 3.58533 16.0002 8 16.0002C10.9587 16.0002 13.544 14.3909 14.928 12.0002H20L22.008 9.99624L24 12.0002L25.9733 9.99624L28 12.0002L32 7.95758L28.6267 4.00024H14.928ZM4.66667 6.00024C3.56267 6.00024 2.66667 6.89624 2.66667 8.00024C2.66667 9.10424 3.56267 10.0002 4.66667 10.0002C5.77067 10.0002 6.66667 9.10424 6.66667 8.00024C6.66667 6.89624 5.77067 6.00024 4.66667 6.00024Z" fill="#064F6F"/>
</svg>
