<svg width="36" height="25" viewBox="0 0 36 25" fill="none" xmlns="http://www.w3.org/2000/svg">
<path fill-rule="evenodd" clip-rule="evenodd" d="M0 2.16235V22.5476C0 23.6566 0.811731 24.5554 1.93005 24.5554H33.7448C34.8619 24.5554 35.6748 23.6462 35.6748 22.5476V2.16235C35.6748 0.945323 34.9479 0 33.7448 0H1.93005C0.680505 0 0 0.968554 0 2.16235ZM2.93341 3.93799C2.93341 3.44676 3.23072 3.16565 3.70569 3.16565C3.9995 3.16565 15.5601 10.4911 16.2604 10.9208L18.0697 12.046C18.6433 11.6616 19.2194 11.333 19.8139 10.9347C21.0275 10.159 31.8252 3.16565 32.1225 3.16565C32.5986 3.16565 32.8947 3.44676 32.8947 3.93799C32.8947 4.45824 31.8925 4.97497 31.2399 5.37329C27.1394 7.87239 23.04 10.5967 18.9801 13.1887C18.7432 13.349 18.2845 13.6917 17.9408 13.6394C17.5575 13.5802 5.79367 6.02239 3.65341 4.76355C3.33173 4.57426 2.93341 4.40134 2.93341 3.93799Z" fill="#064F6F"/>
</svg>
